<?xml version="1.0" encoding="utf-8"?>
<!-- Generator: Adobe Illustrator 15.1.0, SVG Export Plug-In . SVG Version: 6.00 Build 0)  -->
<!DOCTYPE svg PUBLIC "-//W3C//DTD SVG 1.1//EN" "http://www.w3.org/Graphics/SVG/1.1/DTD/svg11.dtd">
<svg version="1.1" id="Calque_2" xmlns="http://www.w3.org/2000/svg" xmlns:xlink="http://www.w3.org/1999/xlink" x="0px" y="0px"
	 width="208.8px" height="264.96px" viewBox="0 0 208.8 264.96" enable-background="new 0 0 208.8 264.96" xml:space="preserve">
<path fill="#FFED00" stroke="#000000" stroke-miterlimit="10" d="M90.783,167.893c-7.701,0.58-13.258-3.812-13.258-3.812
	s0.875-8.102-3.125-8.104s-7.5-1.664-7.5-1.664c-11-7.167-5.5-20.166-5.5-20.166c-14.333-4.5-9-17.833-9-17.833l10,1.905h1.833
	v-1.905l1.5-44.833v-3.25l77.052-14.436l-0.386-0.98c0.853,3.715,15.667,68.333,15.667,68.333s6.667-4,8.167-4.833
	s-3.666,18.667-5.5,19.333s13.5,14.167-2.5,24l-15.448,4.434c-2.197,0.435-6.188,0.352-6.188,0.352L90.783,167.893z"/>
<path fill="#FCE5F1" stroke="#000000" stroke-miterlimit="10" d="M69.9,110.147c0,0,4.167,36.833,42.667,30.333
	c38.501-6.5,30.666-45.292,30.666-45.292S134.4,61.98,102.15,67.98S69.9,102.564,69.9,110.147z"/>
<path fill="#FFFFFF" stroke="#000000" stroke-miterlimit="10" d="M133.9,111.813c0,0-0.833,17.833-24.5,20.667s-27-13-27-13
	C83.462,117.355,132.775,111.397,133.9,111.813z"/>
<circle stroke="#000000" stroke-miterlimit="10" cx="83.967" cy="106.147" r="2.833"/>
<circle stroke="#000000" stroke-miterlimit="10" cx="132.401" cy="101.313" r="2.833"/>
<path fill="#EA5545" stroke="#000000" stroke-miterlimit="10" d="M92.444,173.857c-1.167-1.667-1.877-12.21-1.877-12.21
	c-6.5-0.667-34.167,9.167-34.167,9.167c1-4-1-7.834-1-7.834c4.167-1.667,37-18.833,37-18.833l41.5-6c0,0,18.834,13.167,21.834,21.5
	c0,0-6.5,11.5-8.5,13.5c0,0-2.834-1.999-6.167-1.833c0,0,2.644-10.333,2.821-13.5c0,0-4.488-3.5-9.988-4.667
	c0,0,3.334,11.166,2.667,12.833l-0.334,1.167L92.444,173.857z"/>
<path fill="#FCE5F1" stroke="#000000" stroke-miterlimit="10" d="M103.337,142.541c0,0-1.875,13.252,9.75,11.252
	c11.625-2,7.812-13.699,7.812-13.699L103.337,142.541z"/>
<circle fill="#FCE5F1" stroke="#000000" stroke-miterlimit="10" cx="49.275" cy="168.355" r="8.125"/>
<path fill="#FCE5F1" stroke="#000000" stroke-miterlimit="10" d="M145.441,187.48c0,0,6.459,1.75,5.709-7.375s-11.417-8-11.417-8
	l-1.127,0.366L145.441,187.48"/>
<polygon fill="#9F6D14" stroke="#000000" stroke-miterlimit="10" points="46.4,176.48 59.165,245.48 64.234,245.48 52.669,175.73 
	"/>
<polygon fill="#FFFFFF" stroke="#000000" stroke-miterlimit="10" points="36.775,120.855 42.9,119.355 49.905,160.259 42.9,119.355 
	45.65,118.73 42.275,107.48 32.025,110.355 34.4,121.605 36.775,120.855 44.425,161.847 "/>
<path fill="#198035" stroke="#000000" stroke-miterlimit="10" d="M95.622,173.414l-5.388,1.066l-7.833,31.5
	c2.25,1,70.875-6.5,67.5-8.166l-13.667-30.667l-5.783,1.208l-4.637,0.764l-24.692,4.028L95.622,173.414z"/>
<path fill="#FEC905" stroke="#000000" stroke-miterlimit="10" d="M93.407,205.466c0.326,3.949-3.174,14.682-2.007,16.848l11.826,1
	c0,0,7.55-12.211,7.195-19.538L93.407,205.466z"/>
<path fill="#FEC905" stroke="#000000" stroke-miterlimit="10" d="M118.816,202.833c-0.041,2.021,8.334,19.771,8.334,19.771
	c-1,2,12.583-3.375,12.583-3.375c-2.833-4.125-1.464-16.043-3.086-18.646L118.816,202.833z"/>
<path fill="#DADADA" stroke="#000000" stroke-miterlimit="10" d="M32.025,110.355c0,0-10.208-0.125-11.708-0.792L13.4,68.98
	l11.583,35.917c2.667,1.083,9.917-0.083,10.667-1.083L27.983,63.73l12.982,38.833c4.935-0.167,10.464-7.375,10.464-7.375
	l-7.863-34.625l12.25,38.333c-4.5,5.083-13.327,9.298-13.327,9.298L32.025,110.355z"/>
<path fill="#804E12" stroke="#000000" stroke-miterlimit="10" d="M89.65,222.646c0,0,13.168-0.414,15.834,0.668
	c0,0-6.289,19.332-4.687,24.999c0,0-23.73,0.833-23.564,0s11.333-6.333,12.5-7.583S89.65,222.646,89.65,222.646z"/>
<path fill="#7F4E12" stroke="#000000" stroke-miterlimit="10" d="M124.317,224.23c1-1.584,15.75-5.666,17.75-5.5
	c0,0-1.333,20.666-0.75,22.583s12.333,5.416,12,6.333s-22,1.084-22,1.084C133.9,246.23,123.317,225.814,124.317,224.23z"/>
<polyline fill="#BE7514" stroke="#000000" stroke-miterlimit="10" points="128.9,138.86 130.65,173.093 126.025,172.824 
	123.775,139.597 "/>
<circle fill="#F7A627" stroke="#000000" stroke-miterlimit="10" cx="128.189" cy="175.73" r="3.625"/>
<path fill="#FFED00" stroke="#000000" stroke-miterlimit="10" d="M139.733,90.23c0,0,1.667,7.917,10.167,9.917l3.424,0.312
	l-3.062-13.364l-11.072,2.317L139.733,90.23z"/>
<path fill="#FFEB00" stroke="#000000" stroke-miterlimit="10" d="M64.268,115.304l1.466-0.991c13.833-12.667,8-23.667,8-23.667
	s10.5,5.167,21.667,2.167c18.667-5.167,23.333-26.667,23.333-26.667s5.667,29,31.167,22.667l0.722-0.141L142.8,54.56L65.733,70.061
	L64.268,115.304z"/>
<path fill="#DDE59B" stroke="#000000" stroke-miterlimit="10" d="M73.067,52.813c-8.834,5.333-25.339,20.774-25.339,20.774
	S159.234,52.146,170.567,45.98c0,0-43.333-4.833-46.333-6.667l-3-9.5l3,9.5L73.067,52.813c0,0-1.792-9.521-1.167-10.5
	s49.333-12.333,49.333-12.333s-3.5-13.333-6-14.333s-44.5,8.5-45.334,9.667s3.834,16.625,3.834,16.625"/>
<polyline fill="#BF7513" stroke="#000000" stroke-miterlimit="10" points="94.15,143.98 95.775,177.771 101.275,177.8 
	99.775,143.068 "/>
<circle fill="#F7A628" stroke="#000000" stroke-miterlimit="10" cx="98.525" cy="180.105" r="3.625"/>
</svg>
