<?xml version="1.0" encoding="utf-8"?>
<!-- Generator: Adobe Illustrator 15.1.0, SVG Export Plug-In . SVG Version: 6.00 Build 0)  -->
<!DOCTYPE svg PUBLIC "-//W3C//DTD SVG 1.1//EN" "http://www.w3.org/Graphics/SVG/1.1/DTD/svg11.dtd">
<svg version="1.1" id="Calque_2" xmlns="http://www.w3.org/2000/svg" xmlns:xlink="http://www.w3.org/1999/xlink" x="0px" y="0px"
	 width="208.8px" height="264.96px" viewBox="0 0 208.8 264.96" enable-background="new 0 0 208.8 264.96" xml:space="preserve">
<polygon fill="#9F6D14" stroke="#000000" stroke-miterlimit="10" points="74.644,175.375 61.879,106.375 56.81,106.375 
	68.375,176.125 "/>
<polygon fill="#A06D14" stroke="#000000" stroke-miterlimit="10" points="53.435,109.38 65.727,106.527 66.935,112.146 
	55.935,115.313 "/>
<path fill="#DADADA" stroke="#000000" stroke-miterlimit="10" d="M52.369,110.091c0,0-10.17-0.889-11.616-1.667l-3.857-40.987
	l8.859,36.684c2.578,1.28,9.895,0.66,10.718-0.281l-4.643-40.546l10.036,39.697c4.934,0.203,10.987-6.57,10.987-6.57l-5.247-35.117
	l9.343,39.143c-4.868,4.731-13.986,8.273-13.986,8.273L52.369,110.091z"/>
<path fill="#E7392D" stroke="#000000" stroke-miterlimit="10" d="M40.519,78.764c0,0,1.751,3.06,0,5.81s-0.303,3.441,0.389,3.679
	s2.693,0.429,3.359,0s1.833-2.093,1.167-3.511s-1.833-2.271-1.167-3.511s2-2.851,2.833-3.295s3.015,1.814,2.507,3.602
	s0.174,6.645,0,6.716s2.659,2.571,2.659-0.762s0-7.854,0-7.854s0.503-2.354,2.001,0s1.332,7.712,1.499,8.617s2.296,7.72,2.833,1.897
	s0-11.386,0-11.386l-0.5-4.413l-8.078-0.36h-7.089L40.519,78.764z"/>
<path fill="#EC5F81" stroke="#000000" stroke-miterlimit="10" d="M15.26,84.656c0,0,0.012,3.074,1.14,5.04
	c1.128,1.966,5.167,1.565,5.995,1.891c0.828,0.325,4.137,0.602,4.62-1.044c0.482-1.647-4.225-5.172-0.62-9.588
	s-1.326-5.864-1.326-5.864l-5.689,1.287L15.26,84.656z"/>
<path fill="#DBDC14" stroke="#000000" stroke-miterlimit="10" d="M20.516,88.252c0,0,0.154-4.416,0.826-7.022"/>
<path fill="#DBDC14" stroke="#000000" stroke-miterlimit="10" d="M30.11,51.206c0,0-7.056-1.038-10.824,10.415
	s6.232,4.068,7.982,3.761S30.11,51.206,30.11,51.206z"/>
<path fill="#FFED00" stroke="#000000" stroke-miterlimit="10" d="M112.986,167.893c-7.701,0.58-13.259-3.812-13.259-3.812
	s0.875-8.102-3.125-8.104s-7.5-1.664-7.5-1.664c-11-7.167-5.5-20.166-5.5-20.166c-14.333-4.5-9-17.833-9-17.833l10,1.905h1.833
	v-1.905l1.5-44.833v-3.25l77.052-14.436l-0.386-0.98c0.853,3.715,15.667,68.333,15.667,68.333s6.667-4,8.167-4.833
	s-3.666,18.667-5.5,19.333s13.5,14.167-2.5,24l-15.448,4.434c-2.197,0.435-6.188,0.352-6.188,0.352L112.986,167.893z"/>
<path fill="#FCE5F1" stroke="#000000" stroke-miterlimit="10" d="M92.102,110.147c0,0,4.167,36.833,42.667,30.333
	c38.501-6.5,30.666-45.292,30.666-45.292s-8.833-33.208-41.083-27.208S92.102,102.564,92.102,110.147z"/>
<path fill="#FFFFFF" stroke="#000000" stroke-miterlimit="10" d="M156.102,111.813c0,0-0.833,17.833-24.5,20.667s-27-13-27-13
	C105.664,117.355,154.977,111.397,156.102,111.813z"/>
<circle stroke="#000000" stroke-miterlimit="10" cx="106.169" cy="106.147" r="2.833"/>
<circle stroke="#000000" stroke-miterlimit="10" cx="154.603" cy="101.313" r="2.833"/>
<path fill="#EA5545" stroke="#000000" stroke-miterlimit="10" d="M114.646,173.857c-1.167-1.667-1.877-12.21-1.877-12.21
	c-6.5-0.667-34.167,9.167-34.167,9.167c1-4-1-7.834-1-7.834c4.167-1.667,37-18.833,37-18.833l41.5-6c0,0,18.834,13.167,21.834,21.5
	c0,0-6.5,11.5-8.5,13.5c0,0-2.834-1.999-6.167-1.833c0,0,2.644-10.333,2.821-13.5c0,0-4.488-3.5-9.988-4.667
	c0,0,3.334,11.166,2.667,12.833l-0.334,1.167L114.646,173.857z"/>
<path fill="#FCE5F1" stroke="#000000" stroke-miterlimit="10" d="M125.54,142.541c0,0-1.875,13.252,9.75,11.252
	s7.812-13.699,7.812-13.699L125.54,142.541z"/>
<circle fill="#FCE5F1" stroke="#000000" stroke-miterlimit="10" cx="71.477" cy="168.355" r="8.125"/>
<path fill="#FCE5F1" stroke="#000000" stroke-miterlimit="10" d="M167.643,187.48c0,0,6.459,1.75,5.709-7.375s-11.417-8-11.417-8
	l-1.127,0.366L167.643,187.48"/>
<polygon fill="#9F6D14" stroke="#000000" stroke-miterlimit="10" points="68.602,176.48 81.367,245.48 86.436,245.48 74.871,175.73 
	"/>
<path fill="#198035" stroke="#000000" stroke-miterlimit="10" d="M117.824,173.414l-5.388,1.066l-7.833,31.5
	c2.25,1,70.875-6.5,67.5-8.166l-13.667-30.667l-5.783,1.208l-4.637,0.764l-24.691,4.028L117.824,173.414z"/>
<path fill="#FEC905" stroke="#000000" stroke-miterlimit="10" d="M115.609,205.466c0.326,3.949-3.174,14.682-2.007,16.848l11.826,1
	c0,0,7.55-12.211,7.195-19.538L115.609,205.466z"/>
<path fill="#FEC905" stroke="#000000" stroke-miterlimit="10" d="M141.018,202.833c-0.041,2.021,8.334,19.771,8.334,19.771
	c-1,2,12.583-3.375,12.583-3.375c-2.833-4.125-1.464-16.043-3.086-18.646L141.018,202.833z"/>
<path fill="#804E12" stroke="#000000" stroke-miterlimit="10" d="M111.852,222.646c0,0,13.168-0.414,15.834,0.668
	c0,0-6.289,19.332-4.688,24.999c0,0-23.729,0.833-23.563,0s11.333-6.333,12.5-7.583S111.852,222.646,111.852,222.646z"/>
<path fill="#7F4E12" stroke="#000000" stroke-miterlimit="10" d="M146.519,224.23c1-1.584,15.75-5.666,17.75-5.5
	c0,0-1.333,20.666-0.75,22.583s12.333,5.416,12,6.333s-22,1.084-22,1.084C156.102,246.23,145.519,225.814,146.519,224.23z"/>
<polyline fill="#BE7514" stroke="#000000" stroke-miterlimit="10" points="151.102,138.86 152.852,173.093 148.227,172.824 
	145.977,139.597 "/>
<circle fill="#F7A627" stroke="#000000" stroke-miterlimit="10" cx="150.391" cy="175.73" r="3.625"/>
<path fill="#FFED00" stroke="#000000" stroke-miterlimit="10" d="M161.935,90.23c0,0,1.667,7.917,10.167,9.917l3.424,0.312
	l-3.062-13.364l-11.072,2.317L161.935,90.23z"/>
<path fill="#FFEB00" stroke="#000000" stroke-miterlimit="10" d="M86.47,115.304l1.466-0.991c13.833-12.667,8-23.667,8-23.667
	s10.5,5.167,21.667,2.167c18.667-5.167,23.333-26.667,23.333-26.667s5.667,29,31.167,22.667l0.722-0.141l-7.822-34.112
	L87.935,70.061L86.47,115.304z"/>
<path fill="#DDE59B" stroke="#000000" stroke-miterlimit="10" d="M95.269,52.813C86.435,58.146,69.93,73.587,69.93,73.587
	S181.436,52.146,192.769,45.98c0,0-43.333-4.833-46.333-6.667l-3-9.5l3,9.5L95.269,52.813c0,0-1.792-9.521-1.167-10.5
	s49.333-12.333,49.333-12.333s-3.5-13.333-6-14.333s-44.5,8.5-45.334,9.667s3.834,16.625,3.834,16.625"/>
<polyline fill="#BF7513" stroke="#000000" stroke-miterlimit="10" points="116.352,143.98 117.977,177.771 123.477,177.8 
	121.977,143.068 "/>
<circle fill="#F7A628" stroke="#000000" stroke-miterlimit="10" cx="120.727" cy="180.105" r="3.625"/>
<path fill="#DBDC14" stroke="#000000" stroke-miterlimit="10" d="M39.019,61.621c3-0.547-22.75-1-25.25,1.203
	s-4.515,15.054-3.5,18.5c3,3.75,7.25-2.87,10.25-2.56s3.682,5.332,6.5,4.482s7.5-4.482,13.5-4.482s13.75,0,13.75,0L39.019,61.621z"
	/>
<path fill="#DBDC14" stroke="#000000" stroke-miterlimit="10" d="M25.967,61.171c0,0,2.301-13.847,11.301-13.847
	s16.5-3.25,26.5,1.25s7.75,10.5,8.25,14.25s3,12.88-1,15.94s-10.5,5.81-14,5.81s-11.75-5.81-11.75-5.81"/>
<path fill="#DBDC14" stroke="#000000" stroke-miterlimit="10" d="M70.311,53.542c0,0,7.708,5.782,8.458,12.782
	s-2.63,6.193-4.229,7.667s-6.771-1.923-7.521-3.92s-1-10.997-5-11.747L70.311,53.542z"/>
<path fill="#1D1D1B" stroke="#000000" stroke-miterlimit="10" d="M20.931,72.317c-0.774,0.069-4.941-8.279-1.654-8.342
	s6.642-0.621,6.689,0.899C26.015,66.395,22.974,72.134,20.931,72.317z"/>
<line fill="#DBDC14" stroke="#000000" stroke-miterlimit="10" x1="33.934" y1="55.99" x2="38.101" y2="61.621"/>
<line fill="#DBDC14" stroke="#000000" stroke-miterlimit="10" x1="32.134" y1="60.324" x2="39.267" y2="55.99"/>
<line fill="#DBDC14" stroke="#000000" stroke-miterlimit="10" x1="45.434" y1="55.99" x2="48.767" y2="61.171"/>
<line fill="#DBDC14" stroke="#000000" stroke-miterlimit="10" x1="49.608" y1="56.824" x2="44.267" y2="60.324"/>
</svg>
